HIERARCHY
ROOT pelvis
{
  OFFSET 0 100 0
  CHANNELS 6 Xposition Yposition Zposition Zrotation Xrotation Yrotation
  JOINT pelvis_right_femur
  {
    OFFSET -10.78128 -3.44521 -0.5502486
    CHANNELS 3 Zrotation Xrotation Yrotation
    JOINT right_femur_tibia
    {
      OFFSET -0.8047443 -44.0398 -0.1307829
      CHANNELS 3 Zrotation Xrotation Yrotation
      JOINT right_tibia_foot
      {
        OFFSET 3.006224 -47.83518 -5
        CHANNELS 3 Zrotation Xrotation Yrotation
        End Site
        {
          OFFSET 0 -5 15
        }
      }
    }
  }
  JOINT pelvis_left_femur
  {
    OFFSET 10.78128 -3.44521 -0.5502486
    CHANNELS 3 Zrotation Xrotation Yrotation
    JOINT left_femur_tibia
    {
      OFFSET 0.8047443 -44.0398 -0.1307829
      CHANNELS 3 Zrotation Xrotation Yrotation
      JOINT left_tibia_foot
      {
        OFFSET -4.370144 -48.10324 -4.275266
        CHANNELS 3 Zrotation Xrotation Yrotation
        End Site
        {
          OFFSET 0 -5 15
        }
      }
    }
  }
  JOINT pelvis_spine1
  {
    OFFSET 0 6.468898 -3.129235
    CHANNELS 3 Zrotation Xrotation Yrotation
    JOINT spine1
    {
      OFFSET 0 23.15396 4.99043
      CHANNELS 3 Zrotation Xrotation Yrotation
      JOINT spine2
      {
        OFFSET 0 20.79997 -5.064912
        CHANNELS 3 Zrotation Xrotation Yrotation
        JOINT neck
        {
          OFFSET 0 14.38658 9.616178
          CHANNELS 3 Zrotation Xrotation Yrotation
          End Site
          {
            OFFSET 0 20 0
          }
        }
      }
      JOINT right_manubrium
      {
        OFFSET -5.722621 16.35077 3.967754
        CHANNELS 3 Zrotation Xrotation Yrotation
        JOINT right_clavicle
        {
          OFFSET -13.16364 1.694482 -4.693211
          CHANNELS 3 Zrotation Xrotation Yrotation
          JOINT right_humerus
          {
            OFFSET -28.5034 -0.3100689 -2.792744
            CHANNELS 3 Zrotation Xrotation Yrotation
            JOINT right_radius
            {
              OFFSET -25.15693 0.02248979 -1.271978
              CHANNELS 3 Zrotation Xrotation Yrotation
              End Site
              {
                OFFSET -15 0 0
              }
            }
          }
        }
      }
      JOINT left_manubrium
      {
        OFFSET 5.722621 16.35077 3.967754
        CHANNELS 3 Zrotation Xrotation Yrotation
        JOINT left_clavicle
        {
          OFFSET 13.16364 1.694482 -4.693211
          CHANNELS 3 Zrotation Xrotation Yrotation
          JOINT left_humerus
          {
            OFFSET 29.39168 -1.063119 -2.237045
            CHANNELS 3 Zrotation Xrotation Yrotation
            JOINT left_radius
            {
              OFFSET 24.59957 -0.9528479 0.9047498
              CHANNELS 3 Zrotation Xrotation Yrotation
              End Site
              {
                OFFSET 15 -0 -0
              }
            }
          }
        }
      }
    }
  }
}
MOTION
Frames: 15
Frame Time: 0.0416666666667
0 103.5113 0 2.402948 -1.0268 -0.07109846 1.303877 -10.2365 8.670497 2.140723e-06 35.02018 1.236321e-06 -5.284854 -19.11739 -2.990194 -8.597352 9.546454 -24.45373 1.078616e-05 5.419642 1.018449e-05 9.590221 -16.76326 28.30652 -5.17339 -5.408447 5.566395 2.266889 8.940581 -7.59201 1.353735 22.63804 6.604223 3.119735 -23.42482 8.951836 6.190253 -20.17258 11.30475 85.34516 35.88337 -19.21997 -1.165693e-07 -1.130441e-06 16.87709 -7.043446 8.084526 4.030666 5.435612 -19.38332 -1.154027 -94.77667 29.83083 23.57526 2.928951e-06 3.646829e-06 -15.99329 4.035843 18.60723 8.83445
0.3629436 103.678 1.391644 1.928403 -1.008451 -0.04719594 1.973447 -12.89216 8.734643 2.717179e-06 37.26336 1.869369e-06 -5.421408 -18.00494 -3.158006 -8.135069 10.54776 -24.15448 7.197828e-06 5.299807 9.750589e-06 8.853811 -17.30472 27.31862 -4.741402 -4.828053 5.145949 2.286189 9.031996 -7.754754 1.259235 22.44385 6.816353 3.166976 -23.63123 9.053538 6.310701 -20.07071 11.42643 85.87228 35.77941 -19.58529 -4.406337e-07 -1.302008e-06 16.80923 -6.976823 8.301313 4.060994 5.338115 -19.44363 -1.4448 -94.74294 29.93146 23.47436 3.461504e-06 3.179178e-06 -16.3955 3.834609 18.12225 9.212889
0.7240857 103.8413 2.87121 1.382929 -0.8034215 0.0970238 2.799883 -15.92206 8.675876 2.035342e-06 38.00134 3.037027e-06 -5.634898 -16.60145 -3.190866 -7.60327 11.45216 -23.67479 3.920158e-06 5.2177 7.483172e-06 7.903296 -17.97605 26.14441 -4.239049 -4.1461 4.694786 2.357249 9.086204 -7.908968 1.143468 22.18865 7.096769 3.293248 -23.94753 9.148228 6.385029 -19.91198 11.55644 86.33644 35.6948 -19.96657 -4.351534e-07 -1.35564e-06 16.56072 -6.988112 8.490145 4.188082 5.363677 -19.59755 -1.734244 -94.64111 29.95324 23.23388 3.776676e-06 2.967411e-06 -17.05268 3.714444 17.57128 9.496725
1.082726 103.9182 4.476308 0.899353 -0.3905456 0.3401631 3.585178 -19.03171 8.453862 3.541177e-08 36.85641 4.285731e-06 -5.836882 -14.94174 -3.050398 -7.168817 12.17863 -23.10914 1.416604e-06 5.190878 2.510893e-06 6.889327 -18.81451 24.9017 -3.790599 -3.464293 4.308697 2.468273 9.088813 -8.025374 1.035903 21.87931 7.418931 3.505141 -24.34644 9.237108 6.388774 -19.6923 11.6631 86.67366 35.62993 -20.37063 1.418085e-07 -1.223615e-06 16.14912 -7.081362 8.608232 4.395229 5.549605 -19.835 -1.98051 -94.45045 29.8813 22.85613 3.448891e-06 3.015958e-06 -17.93305 3.676437 17.00477 9.654059
1.440522 103.8451 6.291571 0.5303681 0.193168 0.6686372 4.211716 -22.08236 8.041595 -2.811087e-06 34.10909 4.745426e-06 -5.950336 -13.00709 -2.797849 -6.897195 12.84847 -22.47464 -8.857885e-08 5.383602 -4.686809e-06 5.782691 -19.82326 23.57119 -3.442631 -2.846472 4.016688 2.593747 9.021986 -8.102686 0.9702157 21.54907 7.748056 3.781576 -24.77748 9.330479 6.295381 -19.37904 11.7067 87.02821 35.51613 -20.88094 1.231488e-06 -7.539495e-07 15.58087 -7.292736 8.670535 4.658556 5.88631 -20.13402 -2.167691 -94.21049 29.74361 22.31251 2.448264e-06 3.248168e-06 -19.01355 3.657947 16.41298 9.758078
1.800593 103.5732 8.333411 0.2816055 0.8844807 1.05591 4.644959 -24.7935 7.505661 -6.070632e-06 30.13099 4.559166e-06 -6.011736 -11.03386 -2.447591 -6.785379 13.31621 -21.84897 -6.146217e-07 5.721574 -1.348971e-05 4.712257 -20.85436 22.28213 -3.211014 -2.31588 3.833529 2.728044 8.90275 -8.126554 0.9382639 21.20095 8.056789 4.092591 -25.20257 9.411942 6.143499 -19.01794 11.70002 87.20575 35.41089 -21.34953 2.734424e-06 -3.773228e-08 14.93846 -7.533358 8.661365 4.939959 6.315195 -20.43438 -2.282452 -93.88384 29.55609 21.70069 8.881893e-07 3.686656e-06 -20.10988 3.668782 15.85259 9.781506
2.162418 103.1182 10.69758 0.05038516 1.675598 1.486975 4.982827 -27.1632 6.889181 -9.328997e-06 25.7001 3.214594e-06 -6.070607 -9.181451 -2.076976 -6.706666 13.8267 -21.17634 -2.355927e-07 6.391767 -2.139657e-05 3.535353 -21.71611 20.87644 -3.001617 -1.924778 3.692648 2.872702 8.708988 -8.154679 0.9260374 20.85743 8.319348 4.387382 -25.61957 9.472854 5.964365 -18.59246 11.62913 87.40157 35.33525 -21.87704 4.171845e-06 8.627704e-07 14.20301 -7.769574 8.661477 5.19971 6.746042 -20.72166 -2.316658 -93.50323 29.36225 21.02326 -7.637e-07 3.840465e-06 -21.23364 3.687447 15.30813 9.779711
2.521481 102.5239 13.42153 -0.201857 2.372489 1.949154 5.26973 -28.96421 6.306257 -1.155693e-05 21.75803 1.414333e-06 -6.196655 -7.713487 -1.774669 -6.574497 14.26347 -20.4629 3.896229e-07 7.445813 -2.623939e-05 2.30726 -22.19878 19.4543 -2.77085 -1.628773 3.550872 2.998665 8.483665 -8.183556 0.9194983 20.58234 8.502264 4.607844 -25.93667 9.492161 5.788152 -18.14445 11.52121 87.58379 35.28316 -22.33634 5.220369e-06 1.931371e-06 13.4457 -7.970989 8.695324 5.40566 7.07181 -20.94964 -2.311777 -93.05995 29.21705 20.32155 -2.048313e-06 3.83881e-06 -22.20876 3.702362 14.81265 9.777916
2.883214 101.9227 16.64851 -0.5883136 2.96873 2.446885 5.649914 -29.98726 5.864898 -1.211553e-05 19.2429 -9.630376e-07 -6.420027 -6.626111 -1.58227 -6.267694 14.72198 -19.65908 1.29216e-06 9.175635 -2.538865e-05 0.863167 -22.00415 17.85858 -2.407585 -1.48352 3.359494 3.098456 8.232597 -8.243382 0.9128265 20.35761 8.574984 4.713414 -26.18662 9.45769 5.654241 -17.70323 11.37474 87.88077 35.25996 -22.72124 5.475755e-06 3.594189e-06 12.73999 -8.122482 8.86493 5.562484 7.174073 -21.04514 -2.26231 -92.70214 29.12934 19.8159 -2.353975e-06 3.581803e-06 -22.84654 3.642954 14.32196 9.899393
3.25125 101.4807 20.43197 -1.098355 3.341349 2.971679 6.152346 -30.03244 5.652942 -1.058647e-05 18.63155 -2.946268e-06 -6.833337 -5.896451 -1.49774 -5.783604 15.02396 -18.81193 2.12544e-06 11.82867 -1.910868e-05 -0.606102 -20.95238 16.27102 -1.921593 -1.45668 3.113495 3.167939 8.037194 -8.320054 0.8809647 20.1873 8.540322 4.706846 -26.3453 9.340634 5.622636 -17.29398 11.24057 88.10716 35.34541 -22.90996 4.942313e-06 5.742688e-06 12.05652 -8.174257 9.156124 5.656324 6.981725 -20.99133 -2.211031 -92.34073 29.08305 19.57399 -1.692045e-06 3.173826e-06 -22.9609 3.556809 13.88052 10.08478
3.626214 101.3383 24.76087 -1.697388 3.408414 3.493655 6.831684 -29.21787 5.709689 -7.478767e-06 19.49979 -4.27921e-06 -7.421419 -5.523639 -1.542935 -5.132824 14.99375 -17.91604 2.478503e-06 15.65846 -9.980606e-06 -2.054625 -19.13226 14.81349 -1.312177 -1.450608 2.845374 3.206153 7.944541 -8.384016 0.8381705 20.07902 8.401008 4.601435 -26.38574 9.145641 5.667659 -16.93928 11.15325 88.23442 35.4588 -22.88592 3.837829e-06 8.032828e-06 11.43491 -8.129513 9.545708 5.677582 6.536853 -20.81363 -2.191461 -92.02007 29.06013 19.59861 -4.685751e-07 2.531029e-06 -22.58687 3.429432 13.48097 10.33737
4.00881 101.585 29.57808 -2.263815 3.191258 3.951308 7.612686 -27.46038 5.946725 -4.035515e-06 20.75153 -5.371325e-06 -8.08121 -5.650222 -1.655314 -4.423829 14.19976 -16.93114 1.860709e-06 21.03841 -9.723225e-07 -3.419152 -16.71366 13.62153 -0.6441075 -1.432421 2.703464 3.199916 7.974566 -8.38401 0.8025528 20.05639 8.169051 4.436248 -26.28702 8.875368 5.737394 -16.67137 11.14012 88.25754 35.53993 -22.6893 2.646907e-06 9.852143e-06 10.95543 -8.060874 9.976591 5.62937 5.942742 -20.57922 -2.19359 -91.84124 29.02306 19.8859 5.950664e-07 1.457664e-06 -21.94765 3.251474 13.11293 10.64485
4.377841 102.26 34.6674 -2.625732 2.642864 4.271423 8.327264 -24.95273 6.278201 -1.373332e-06 21.71081 -5.890708e-06 -8.766804 -6.364057 -1.820623 -3.810933 12.38837 -15.90602 -6.481593e-08 28.13918 4.2538e-06 -4.487178 -14.00003 12.88772 -0.05815405 -1.313804 2.780501 3.14127 8.164664 -8.29139 0.7681813 20.168 7.885798 4.260369 -25.98219 8.534577 5.834763 -16.44958 11.23634 88.07109 35.64281 -22.38212 1.82224e-06 1.025292e-05 10.54437 -7.963625 10.34586 5.463613 5.288374 -20.38145 -2.248502 -91.64425 28.98989 20.19598 4.767806e-07 -4.511426e-07 -21.29464 3.076973 12.7994 10.90536
4.741752 103.2811 39.84801 -2.571986 1.851243 4.431082 8.511505 -21.28883 6.336598 8.782511e-07 21.93162 -6.276773e-06 -9.196626 -7.527479 -1.869519 -3.492601 8.936002 -14.77296 -4.587261e-06 35.60284 7.966593e-06 -5.217158 -11.51459 12.68869 0.2364848 -1.094014 3.239014 2.921895 8.448812 -7.996135 0.7565208 20.49881 7.613924 4.137859 -25.42813 8.166965 5.833747 -16.37274 11.40518 87.7518 35.66289 -21.78204 1.931165e-06 9.774051e-06 10.49402 -8.276184 10.5684 5.435974 4.730397 -20.23029 -2.336207 -91.69102 28.96649 20.58926 -7.223829e-07 -1.858094e-06 -20.75594 2.806616 12.4596 11.25509
5.095321 104.5077 44.89665 -2.0969 0.929731 4.453022 8.137321 -17.00453 6.118686 2.001581e-06 21.28078 -6.154802e-06 -9.303449 -8.896998 -1.757353 -3.476838 4.250092 -13.65244 -1.063561e-05 42.33259 8.866707e-06 -5.51914 -9.613206 12.97575 0.1760645 -0.7800288 4.01009 2.569592 8.794051 -7.53731 0.7411894 20.97384 7.413146 4.104238 -24.66651 7.792297 5.759807 -16.41093 11.62817 87.15842 35.65486 -20.91566 3.018119e-06 8.04404e-06 10.71767 -8.991229 10.60199 5.58245 4.347975 -20.16396 -2.46301 -91.72906 28.92427 20.85972 -3.221996e-06 -2.998773e-06 -20.47528 2.50585 12.09249 11.59775
